solid boundary
facet normal 0.104398 0.952126 -0.287327
  outer loop
    vertex -6.25561 -11.467 0.406071
    vertex -6.23572 -11.2856 1.01441
    vertex -6.25462 -11.4671 0.406071
  endloop
endfacet
facet normal -0.0217282 -0.24885 -0.968298
  outer loop
    vertex -8.81461 -9.31962 2.75795
    vertex -8.88563 -10.133 2.96858
    vertex -8.81561 -9.31953 2.75795
  endloop
endfacet
facet normal 0.0406688 -0.0475839 -0.998039
  outer loop
    vertex -8.88563 -10.133 2.96858
    vertex -9.45269 -9.46952 2.91384
    vertex -8.88487 -10.1324 2.96858
  endloop
endfacet
facet normal -0.388278 -0.0383475 -0.920744
  outer loop
    vertex -6.68768 -4.37634 2.50074
    vertex -6.35871 -4.34385 2.36066
    vertex -6.68758 -4.37734 2.50074
  endloop
endfacet
facet normal 0.0679965 -0.0885026 -0.993752
  outer loop
    vertex -4.74859 -4.91462 0.199966
    vertex -5.2734 -4.23154 0.103222
    vertex -4.7478 -4.91401 0.199966
  endloop
endfacet
facet normal 0.0432126 0.0704154 -0.996581
  outer loop
    vertex -5.54052 -13.1911 0.16065
    vertex -5.31174 -12.8183 0.196911
    vertex -5.53967 -13.1916 0.16065
  endloop
endfacet
facet normal -0.321767 0.309472 -0.894815
  outer loop
    vertex -6.25814 -12.5009 0.657405
    vertex -5.54052 -13.1911 0.16065
    vertex -6.25883 -12.5016 0.657405
  endloop
endfacet
facet normal -0.0135733 -0.060524 -0.998074
  outer loop
    vertex -8.67856 -8.71933 2.78561
    vertex -8.56025 -8.19178 2.75201
    vertex -8.67758 -8.71955 2.78561
  endloop
endfacet
facet normal 0.00832428 0.0101831 -0.999914
  outer loop
    vertex -4.87284 -12.6724 2.76903
    vertex -5.3795 -13.2922 2.7585
    vertex -4.87361 -12.6718 2.76903
  endloop
endfacet
facet normal 0.00485287 -0.00369198 -0.999981
  outer loop
    vertex -5.3795 -13.2922 2.7585
    vertex -5.86111 -12.9258 2.75481
    vertex -5.37889 -13.2914 2.7585
  endloop
endfacet
facet normal 0.0519969 -0.425261 -0.903576
  outer loop
    vertex -8.12276 -8.03701 2.88043
    vertex -8.05618 -8.58154 3.14054
    vertex -8.12375 -8.03713 2.88043
  endloop
endfacet
facet normal 0.53989 -0.570873 -0.618565
  outer loop
    vertex -9.30095 -9.31393 0.113512
    vertex -8.87177 -9.76774 0.906926
    vertex -9.30168 -9.31462 0.113512
  endloop
endfacet
facet normal -0.2703 -0.0729796 -0.960006
  outer loop
    vertex -8.54764 -9.11054 -0.114052
    vertex -9.30095 -9.31393 0.113512
    vertex -8.5479 -9.10957 -0.114052
  endloop
endfacet
facet normal -0.207722 -0.484644 -0.849689
  outer loop
    vertex -8.74684 -9.5753 0.199735
    vertex -8.54764 -9.11054 -0.114052
    vertex -8.74592 -9.57569 0.199735
  endloop
endfacet
facet normal 0.0785605 0.875498 -0.476792
  outer loop
    vertex -8.85433 -9.76227 1.9386
    vertex -8.81461 -9.31962 2.75795
    vertex -8.85333 -9.76236 1.9386
  endloop
endfacet
facet normal -0.448676 0.353251 -0.820916
  outer loop
    vertex -8.81461 -9.31962 2.75795
    vertex -8.25988 -9.75637 2.26682
    vertex -8.81523 -9.32041 2.75795
  endloop
endfacet
facet normal -0.235941 -0.461446 -0.855219
  outer loop
    vertex -6.25814 -12.5009 0.657405
    vertex -6.43086 -12.8387 0.887321
    vertex -6.25903 -12.5004 0.657405
  endloop
endfacet
facet normal -0.887891 -0.00276389 -0.460046
  outer loop
    vertex -6.43086 -12.8387 0.887321
    vertex -5.94899 -12.8372 -0.0426994
    vertex -6.43086 -12.8397 0.887321
  endloop
endfacet
facet normal -0.566785 0.616561 -0.546449
  outer loop
    vertex -5.94899 -12.8372 -0.0426994
    vertex -6.25814 -12.5009 0.657405
    vertex -5.94825 -12.8365 -0.0426994
  endloop
endfacet
facet normal 0.954018 0.299225 -0.0177138
  outer loop
    vertex -8.87177 -9.76774 0.906926
    vertex -8.85433 -9.76227 1.9386
    vertex -8.87147 -9.76869 0.906926
  endloop
endfacet
facet normal -0.00306576 -0.00486344 -0.999983
  outer loop
    vertex -5.86111 -12.9258 2.75481
    vertex -5.4196 -12.2254 2.75005
    vertex -5.86026 -12.9263 2.75481
  endloop
endfacet
facet normal 0.178481 0.88122 -0.437717
  outer loop
    vertex -3.82299 -11.2568 0.909835
    vertex -3.89161 -11.5956 0.199776
    vertex -3.82397 -11.2566 0.909835
  endloop
endfacet
facet normal -0.0206616 -0.0259399 -0.99945
  outer loop
    vertex -2.12668 -11.3378 3.14951
    vertex -1.65745 -10.7487 3.12452
    vertex -2.1259 -11.3384 3.14951
  endloop
endfacet
facet normal 0.228685 0.101936 -0.968149
  outer loop
    vertex -1.65745 -10.7487 3.12452
    vertex -2.09716 -10.9447 3.00002
    vertex -1.65786 -10.7478 3.12452
  endloop
endfacet
facet normal -0.0293008 0.0808646 -0.996294
  outer loop
    vertex -0.269763 -8.56622 2.83585
    vertex -0.00884265 -9.28631 2.76973
    vertex -0.270703 -8.56656 2.83585
  endloop
endfacet
facet normal -0.102357 0.779523 -0.617954
  outer loop
    vertex -3.82411 -11.9809 0.885871
    vertex -3.77508 -12.3543 0.406721
    vertex -3.8251 -11.981 0.885871
  endloop
endfacet
facet normal -0.0440492 -0.988859 -0.142188
  outer loop
    vertex -6.26304 -12.6109 1.42393
    vertex -6.25814 -12.5009 0.657405
    vertex -6.26204 -12.6109 1.42393
  endloop
endfacet
facet normal -0.4123 0.749572 -0.517833
  outer loop
    vertex -3.76746 -13.0505 2.26694
    vertex -3.94155 -12.734 2.86369
    vertex -3.76658 -13.05 2.26694
  endloop
endfacet
facet normal -0.614895 -0.7435 -0.262891
  outer loop
    vertex -3.94155 -12.734 2.86369
    vertex -3.7754 -12.5331 1.90689
    vertex -3.94078 -12.7346 2.86369
  endloop
endfacet
facet normal 0.696791 0.122899 -0.706667
  outer loop
    vertex -4.49936 -12.1 0.199344
    vertex -3.82411 -11.9809 0.885871
    vertex -4.49919 -12.101 0.199344
  endloop
endfacet
facet normal -0.0432471 -0.0255253 -0.998738
  outer loop
    vertex -1.71528 -10.436 0.0677888
    vertex -2.61325 -10.966 0.120218
    vertex -1.71579 -10.4351 0.0677888
  endloop
endfacet
facet normal 0.532272 -0.0724797 -0.843465
  outer loop
    vertex -4.7557 -10.5387 0.200771
    vertex -3.82231 -10.6658 0.800713
    vertex -4.75583 -10.5397 0.200771
  endloop
endfacet
facet normal 0.00168083 0.00148618 -0.999997
  outer loop
    vertex -5.31174 -12.8183 0.196911
    vertex -4.49936 -12.1 0.199344
    vertex -5.31108 -12.819 0.196911
  endloop
endfacet
facet normal 0.000658652 0.000221612 -1
  outer loop
    vertex -5.38748 -7.20028 -0.00176793
    vertex -4.69632 -6.96773 -0.00126116
    vertex -5.38716 -7.20123 -0.00176793
  endloop
endfacet
facet normal 0.0970581 0.0710707 -0.992738
  outer loop
    vertex -9.45269 -9.46952 2.91384
    vertex -9.103 -9.21346 2.96636
    vertex -9.4521 -9.47033 2.91384
  endloop
endfacet
facet normal -0.526724 0.193894 -0.827627
  outer loop
    vertex -9.103 -9.21346 2.96636
    vertex -8.81461 -9.31962 2.75795
    vertex -9.10335 -9.2144 2.96636
  endloop
endfacet
facet normal -0.00768324 -0.00679876 -0.999947
  outer loop
    vertex -8.23651 -8.80807 2.75003
    vertex -8.81461 -9.31962 2.75795
    vertex -8.23717 -8.80732 2.75003
  endloop
endfacet
facet normal 0.00992285 0.0437824 -0.998992
  outer loop
    vertex -8.81461 -9.31962 2.75795
    vertex -8.67856 -8.71933 2.78561
    vertex -8.81363 -9.31984 2.75795
  endloop
endfacet
facet normal -0.060213 0.0904438 -0.99408
  outer loop
    vertex -5.653 -4.63048 2.75013
    vertex -6.065 -4.01163 2.83139
    vertex -5.65217 -4.62993 2.75013
  endloop
endfacet
facet normal 0.00476155 -0.00162553 -0.999987
  outer loop
    vertex -7.31148 -10.1087 2.7204
    vertex -6.65504 -10.3328 2.72389
    vertex -7.3118 -10.1096 2.7204
  endloop
endfacet
facet normal -0.000479656 -0.155959 -0.987763
  outer loop
    vertex -6.65504 -10.3328 2.72389
    vertex -6.65708 -10.9961 2.82862
    vertex -6.65604 -10.3328 2.72389
  endloop
endfacet
facet normal 0.0579744 -0.0786162 -0.995218
  outer loop
    vertex -6.65708 -10.9961 2.82862
    vertex -7.31148 -10.1087 2.7204
    vertex -6.65628 -10.9955 2.82862
  endloop
endfacet
facet normal 0.318139 0.0874453 -0.944003
  outer loop
    vertex -5.09146 -4.3742 2.7679
    vertex -4.56764 -4.23022 2.95777
    vertex -5.09119 -4.37516 2.7679
  endloop
endfacet
facet normal 0.010018 -0.0495733 -0.99872
  outer loop
    vertex -6.40576 -9.6226 1.83924
    vertex -6.63525 -8.48699 1.78057
    vertex -6.40478 -9.6224 1.83924
  endloop
endfacet
facet normal -0.436832 0.00316033 -0.899537
  outer loop
    vertex -8.01642 -10.1036 3.06275
    vertex -7.31148 -10.1087 2.7204
    vertex -8.01643 -10.1046 3.06275
  endloop
endfacet
facet normal 0.111668 -0.323524 -0.939608
  outer loop
    vertex -7.31148 -10.1087 2.7204
    vertex -7.43296 -9.75675 2.58478
    vertex -7.31053 -10.1084 2.7204
  endloop
endfacet
facet normal -0.96125 -0.249868 -0.116468
  outer loop
    vertex -6.41986 -8.51198 1.21032
    vertex -6.34869 -8.49348 0.58324
    vertex -6.41961 -8.51295 1.21032
  endloop
endfacet
facet normal 0.0111826 0.453763 -0.891052
  outer loop
    vertex -8.25988 -9.75637 2.26682
    vertex -8.23651 -8.80807 2.75003
    vertex -8.25888 -9.75639 2.26682
  endloop
endfacet
facet normal -0.243557 0.406247 -0.880706
  outer loop
    vertex -3.48749 -4.23609 0.199978
    vertex -3.3013 -4.54665 0.00523404
    vertex -3.48835 -4.2366 0.199978
  endloop
endfacet
facet normal 0.0049088 0.0258909 -0.999653
  outer loop
    vertex -3.3013 -4.54665 0.00523404
    vertex -3.17626 -3.88714 0.0229293
    vertex -3.30032 -4.54684 0.00523404
  endloop
endfacet
facet normal -0.0156144 -0.237751 -0.971201
  outer loop
    vertex -2.86903 -8.13965 -0.155095
    vertex -2.9128 -8.80611 0.00875895
    vertex -2.87003 -8.13958 -0.155095
  endloop
endfacet
facet normal 0.124244 0.0859159 -0.988525
  outer loop
    vertex -3.33015 -9.55028 0.0804596
    vertex -4.01795 -10.0259 -0.0473251
    vertex -3.33072 -9.54946 0.0804596
  endloop
endfacet
facet normal -0.0353532 -0.000232624 -0.999375
  outer loop
    vertex -4.69632 -6.96773 -0.00126116
    vertex -3.88933 -6.96242 -0.0298099
    vertex -4.69631 -6.96873 -0.00126116
  endloop
endfacet
facet normal 0.164551 -0.0620057 -0.984418
  outer loop
    vertex -3.62547 -3.66593 2.77633
    vertex -3.2123 -3.82162 2.8552
    vertex -3.62582 -3.66687 2.77633
  endloop
endfacet
facet normal -0.00943162 -0.0122975 -0.99988
  outer loop
    vertex -1.73827 -11.2019 0.199878
    vertex -1.43908 -10.8118 0.192258
    vertex -1.73748 -11.2025 0.199878
  endloop
endfacet
facet normal -0.444915 -0.321168 -0.836003
  outer loop
    vertex -5.50434 -4.84713 0.199985
    vertex -6.2072 -5.3545 0.768959
    vertex -5.50493 -4.84632 0.199985
  endloop
endfacet
facet normal -0.41961 0.342915 -0.840438
  outer loop
    vertex -4.0624 -4.40158 2.75172
    vertex -3.47513 -4.88151 2.26269
    vertex -4.06303 -4.40235 2.75172
  endloop
endfacet
facet normal -0.690502 -0.116926 -0.713817
  outer loop
    vertex -3.47513 -4.88151 2.26269
    vertex -3.97863 -4.96677 2.76371
    vertex -3.4753 -4.88052 2.26269
  endloop
endfacet
facet normal 0.000355302 -0.000497575 -1
  outer loop
    vertex -5.93775 -4.24017 0.199529
    vertex -5.50434 -4.84713 0.199985
    vertex -5.93856 -4.24075 0.199529
  endloop
endfacet
facet normal 0.0138952 -0.0129914 -0.999819
  outer loop
    vertex -3.88933 -6.96242 -0.0298099
    vertex -3.27739 -7.53456 -0.0138711
    vertex -3.89001 -6.96315 -0.0298099
  endloop
endfacet
facet normal 0.052345 0.0357134 -0.99799
  outer loop
    vertex -3.83288 -4.25127 -0.00955075
    vertex -4.35326 -4.60631 -0.0495501
    vertex -3.83344 -4.25044 -0.00955075
  endloop
endfacet
facet normal 0.382736 -0.156833 -0.910449
  outer loop
    vertex -4.35326 -4.60631 -0.0495501
    vertex -3.84995 -4.81255 0.197559
    vertex -4.35364 -4.60724 -0.0495501
  endloop
endfacet
facet normal -0.573093 0.737741 -0.356794
  outer loop
    vertex -3.97863 -4.96677 2.76371
    vertex -3.77111 -5.23391 1.87802
    vertex -3.97942 -4.96738 2.76371
  endloop
endfacet
facet normal -0.0112181 0.088154 -0.996044
  outer loop
    vertex -8.13976 -9.13437 3.14992
    vertex -8.01642 -10.1036 3.06275
    vertex -8.14075 -9.1345 3.14992
  endloop
endfacet
facet normal -0.26448 -0.189987 -0.945492
  outer loop
    vertex -5.76949 -11.1178 0.199922
    vertex -6.25561 -11.467 0.406071
    vertex -5.77007 -11.117 0.199922
  endloop
endfacet
facet normal -0.803846 -0.289311 -0.519742
  outer loop
    vertex -6.23572 -11.2856 1.01441
    vertex -5.76949 -11.1178 0.199922
    vertex -6.23538 -11.2865 1.01441
  endloop
endfacet
facet normal 0.0127833 -0.437169 -0.899288
  outer loop
    vertex -0.0916442 -9.654 0.199688
    vertex -0.0790735 -10.0839 0.408853
    vertex -0.0926438 -9.65403 0.199688
  endloop
endfacet
facet normal -0.299661 -0.376105 -0.876783
  outer loop
    vertex -0.0790735 -10.0839 0.408853
    vertex 0.426033 -9.44994 -0.0357228
    vertex -0.0782914 -10.0845 0.408853
  endloop
endfacet
facet normal -0.0779649 -0.791904 -0.605648
  outer loop
    vertex -3.77105 -5.32357 0.500046
    vertex -3.80623 -5.6809 0.971795
    vertex -3.77205 -5.32347 0.500046
  endloop
endfacet
facet normal 0.719905 -0.0252592 -0.693612
  outer loop
    vertex -3.80623 -5.6809 0.971795
    vertex -4.54896 -5.65484 0.199961
    vertex -3.80619 -5.6799 0.971795
  endloop
endfacet
facet normal -0.139839 -0.0837533 -0.986626
  outer loop
    vertex -4.56764 -4.23022 2.95777
    vertex -3.62547 -3.66593 2.77633
    vertex -4.56713 -4.23108 2.95777
  endloop
endfacet
facet normal 0.113247 0.579773 -0.80687
  outer loop
    vertex -5.31174 -12.8183 0.196911
    vertex -5.40083 -13.2744 -0.143322
    vertex -5.31272 -12.8181 0.196911
  endloop
endfacet
facet normal -0.0117133 -0.088405 -0.996016
  outer loop
    vertex -5.40083 -13.2744 -0.143322
    vertex -5.31802 -12.6494 -0.19977
    vertex -5.39984 -13.2745 -0.143322
  endloop
endfacet
facet normal 0.0341826 -0.919339 -0.39198
  outer loop
    vertex -5.31802 -12.6494 -0.19977
    vertex -5.31174 -12.8183 0.196911
    vertex -5.31902 -12.6494 -0.19977
  endloop
endfacet
facet normal -0.000198778 5.51109e-05 -1
  outer loop
    vertex -3.89161 -11.5956 0.199776
    vertex -4.57367 -11.4065 0.199922
    vertex -3.89134 -11.5946 0.199776
  endloop
endfacet
facet normal 0.666872 0.132987 -0.73321
  outer loop
    vertex -4.57367 -11.4065 0.199922
    vertex -3.82299 -11.2568 0.909835
    vertex -4.57347 -11.4075 0.199922
  endloop
endfacet
facet normal -0.0613918 0.121576 -0.990682
  outer loop
    vertex -2.09716 -10.9447 3.00002
    vertex -2.53956 -10.0686 3.13495
    vertex -2.09627 -10.9442 3.00002
  endloop
endfacet
facet normal 0.187174 0.942876 -0.275593
  outer loop
    vertex -2.53956 -10.0686 3.13495
    vertex -2.56628 -10.2032 2.6563
    vertex -2.54054 -10.0684 3.13495
  endloop
endfacet
facet normal 0.00661891 -0.0776824 -0.996956
  outer loop
    vertex -0.334205 -7.8099 2.77649
    vertex -0.269763 -8.56622 2.83585
    vertex -0.335201 -7.80998 2.77649
  endloop
endfacet
facet normal 0.085049 -0.137867 -0.986793
  outer loop
    vertex -5.2734 -4.23154 0.103222
    vertex -5.63192 -3.65037 -0.00887418
    vertex -5.27255 -4.23101 0.103222
  endloop
endfacet
facet normal -0.137777 -0.265706 -0.954158
  outer loop
    vertex -5.63192 -3.65037 -0.00887418
    vertex -5.93775 -4.24017 0.199529
    vertex -5.63281 -3.64991 -0.00887418
  endloop
endfacet
facet normal 0.0236373 -0.133207 -0.990806
  outer loop
    vertex -8.1945 -8.09717 0.0556696
    vertex -8.00987 -9.13765 0.19996
    vertex -8.19548 -8.09734 0.0556696
  endloop
endfacet
facet normal -0.997848 -0.0041916 -0.0654314
  outer loop
    vertex -7.43296 -9.75675 2.58478
    vertex -7.39249 -9.75658 1.96759
    vertex -7.43296 -9.75775 2.58478
  endloop
endfacet
facet normal 0.871111 0.487022 -0.0630461
  outer loop
    vertex -3.82231 -10.6658 0.800713
    vertex -3.8554 -10.6843 0.200597
    vertex -3.8228 -10.6649 0.800713
  endloop
endfacet
facet normal -0.536389 0.309645 -0.785116
  outer loop
    vertex -5.50434 -4.84713 0.199985
    vertex -6.20572 -4.44224 0.838852
    vertex -5.50384 -4.84626 0.199985
  endloop
endfacet
facet normal -0.335025 -0.00500603 -0.942196
  outer loop
    vertex -6.25523 -4.85835 0.467045
    vertex -5.50434 -4.84713 0.199985
    vertex -6.25522 -4.85935 0.467045
  endloop
endfacet
facet normal 0.247772 0.215621 -0.944519
  outer loop
    vertex -7.39249 -9.75658 1.96759
    vertex -6.63933 -9.10115 2.31479
    vertex -7.39183 -9.75733 1.96759
  endloop
endfacet
facet normal -0.261508 0.583821 -0.768613
  outer loop
    vertex -6.63933 -9.10115 2.31479
    vertex -6.40576 -9.6226 1.83924
    vertex -6.64024 -9.10156 2.31479
  endloop
endfacet
facet normal -0.357234 -0.925635 -0.124831
  outer loop
    vertex -6.29816 -12.7019 2.19921
    vertex -6.26304 -12.6109 1.42393
    vertex -6.29723 -12.7023 2.19921
  endloop
endfacet
facet normal 0.424296 0.230123 -0.875795
  outer loop
    vertex -5.4196 -12.2254 2.75005
    vertex -6.29816 -12.7019 2.19921
    vertex -5.42008 -12.2245 2.75005
  endloop
endfacet
facet normal 0.0384203 0.522427 -0.851818
  outer loop
    vertex -3.77508 -12.3543 0.406721
    vertex -3.82161 -12.987 0.0165826
    vertex -3.77608 -12.3542 0.406721
  endloop
endfacet
facet normal 0.12772 0.981008 -0.145982
  outer loop
    vertex -3.82161 -12.987 0.0165826
    vertex -3.80807 -12.883 0.727314
    vertex -3.82062 -12.9871 0.0165826
  endloop
endfacet
facet normal -0.372108 0.116493 -0.92085
  outer loop
    vertex 0.39444 -7.62868 -0.00612976
    vertex -0.0698431 -7.48333 0.199871
    vertex 0.394739 -7.62773 -0.00612976
  endloop
endfacet
facet normal 0.056467 0.0600219 -0.996599
  outer loop
    vertex -0.0698431 -7.48333 0.199871
    vertex -0.471026 -7.90977 0.151457
    vertex -0.0705714 -7.48264 0.199871
  endloop
endfacet
facet normal -0.162293 -0.0527103 -0.985334
  outer loop
    vertex -0.471026 -7.90977 0.151457
    vertex 0.39444 -7.62868 -0.00612976
    vertex -0.470717 -7.91072 0.151457
  endloop
endfacet
facet normal -0.00250753 -0.0165858 -0.999859
  outer loop
    vertex -8.05618 -8.58154 3.14054
    vertex -8.13976 -9.13437 3.14992
    vertex -8.05717 -8.58139 3.14054
  endloop
endfacet
facet normal -0.660392 0.400913 -0.634942
  outer loop
    vertex -3.7754 -12.5331 1.90689
    vertex -4.36774 -12.1735 2.75003
    vertex -3.77488 -12.5322 1.90689
  endloop
endfacet
facet normal 0.0698654 0.0703857 -0.99507
  outer loop
    vertex -6.065 -4.01163 2.83139
    vertex -5.63262 -3.57603 2.89256
    vertex -6.06429 -4.01233 2.83139
  endloop
endfacet
facet normal -0.0719456 0.106114 -0.991748
  outer loop
    vertex -5.63262 -3.57603 2.89256
    vertex -5.09146 -4.3742 2.7679
    vertex -5.63345 -3.57659 2.89256
  endloop
endfacet
facet normal -0.0357822 0.995597 -0.0866392
  outer loop
    vertex -3.77347 -12.5868 1.28901
    vertex -3.7754 -12.5331 1.90689
    vertex -3.77247 -12.5868 1.28901
  endloop
endfacet
facet normal -0.00253389 -0.000438863 -0.999997
  outer loop
    vertex -3.46851 -4.29872 2.75017
    vertex -4.0624 -4.40158 2.75172
    vertex -3.46868 -4.29773 2.75017
  endloop
endfacet
facet normal 0.199445 -0.545977 -0.813714
  outer loop
    vertex -6.6099 -5.35694 1.19286
    vertex -6.34253 -6.08886 1.74949
    vertex -6.61084 -5.35728 1.19286
  endloop
endfacet
facet normal -0.10396 -0.135051 -0.98537
  outer loop
    vertex -6.26079 -4.90342 1.09387
    vertex -6.6099 -5.35694 1.19286
    vertex -6.26158 -4.90281 1.09387
  endloop
endfacet
facet normal 0.421794 -0.171315 -0.89036
  outer loop
    vertex -6.35871 -4.34385 2.36066
    vertex -5.653 -4.63048 2.75013
    vertex -6.35909 -4.34478 2.36066
  endloop
endfacet
facet normal 0.00186789 0.00450696 -0.999988
  outer loop
    vertex -0.735098 -8.54694 0.148092
    vertex -0.471026 -7.90977 0.151457
    vertex -0.734174 -8.54732 0.148092
  endloop
endfacet
facet normal -0.185674 0.0370104 -0.981914
  outer loop
    vertex -1.74444 -11.711 2.85637
    vertex -2.11167 -11.6378 2.92857
    vertex -1.74424 -11.71 2.85637
  endloop
endfacet
facet normal 0.100685 -0.00665977 -0.994896
  outer loop
    vertex -3.94155 -12.734 2.86369
    vertex -4.87284 -12.6724 2.76903
    vertex -3.94148 -12.733 2.86369
  endloop
endfacet
facet normal 0.096454 -0.126851 -0.987221
  outer loop
    vertex -4.36774 -12.1735 2.75003
    vertex -3.94155 -12.734 2.86369
    vertex -4.36854 -12.1741 2.75003
  endloop
endfacet
facet normal 0.0434134 -0.217747 -0.975039
  outer loop
    vertex -3.65223 -13.1949 1.43021
    vertex -3.77347 -12.5868 1.28901
    vertex -3.65125 -13.1947 1.43021
  endloop
endfacet
facet normal 0.400406 -0.801378 -0.444374
  outer loop
    vertex -3.80807 -12.883 0.727314
    vertex -3.65223 -13.1949 1.43021
    vertex -3.80896 -12.8834 0.727314
  endloop
endfacet
facet normal -0.105739 0.568145 -0.816107
  outer loop
    vertex -3.7754 -12.5331 1.90689
    vertex -3.65223 -13.1949 1.43021
    vertex -3.77638 -12.5333 1.90689
  endloop
endfacet
facet normal -0.609069 0.763252 -0.215597
  outer loop
    vertex -3.65223 -13.1949 1.43021
    vertex -3.76746 -13.0505 2.26694
    vertex -3.65145 -13.1943 1.43021
  endloop
endfacet
facet normal 0.0142151 -0.0622601 -0.997959
  outer loop
    vertex -7.33204 -8.71272 0.199925
    vertex -7.46083 -8.14864 0.162899
    vertex -7.33107 -8.7125 0.199925
  endloop
endfacet
facet normal 0.143917 -0.0100964 -0.989538
  outer loop
    vertex -7.46083 -8.14864 0.162899
    vertex -8.1945 -8.09717 0.0556696
    vertex -7.46076 -8.14764 0.162899
  endloop
endfacet
facet normal -0.000188343 3.04595e-05 -1
  outer loop
    vertex -3.8554 -10.6843 0.200597
    vertex -4.7557 -10.5387 0.200771
    vertex -3.85524 -10.6833 0.200597
  endloop
endfacet
facet normal -0.928479 0.107724 -0.355418
  outer loop
    vertex -6.63525 -8.48699 1.78057
    vertex -6.41986 -8.51198 1.21032
    vertex -6.63537 -8.48798 1.78057
  endloop
endfacet
facet normal 0.499485 0.335264 -0.79882
  outer loop
    vertex -6.67227 -8.26987 0.798329
    vertex -7.33204 -8.71272 0.199925
    vertex -6.67283 -8.26904 0.798329
  endloop
endfacet
facet normal -0.394714 0.272767 -0.877382
  outer loop
    vertex -6.34869 -8.49348 0.58324
    vertex -6.67227 -8.26987 0.798329
    vertex -6.34812 -8.49266 0.58324
  endloop
endfacet
facet normal -0.00829544 0.0244785 -0.999666
  outer loop
    vertex -5.45532 -8.49341 3.09178
    vertex -5.2454 -9.11285 3.07487
    vertex -5.45627 -8.49373 3.09178
  endloop
endfacet
facet normal -0.023679 -0.0510958 -0.998413
  outer loop
    vertex -5.14231 -7.81798 3.04979
    vertex -5.45532 -8.49341 3.09178
    vertex -5.14322 -7.81756 3.04979
  endloop
endfacet
facet normal 0.0104836 0.00585818 -0.999928
  outer loop
    vertex -4.33116 -9.52206 3.13796
    vertex -3.46549 -9.03833 3.14987
    vertex -4.33067 -9.52293 3.13796
  endloop
endfacet
facet normal 0.755085 0.177293 -0.631201
  outer loop
    vertex -3.46549 -9.03833 3.14987
    vertex -3.74194 -9.10324 2.80093
    vertex -3.46572 -9.03736 3.14987
  endloop
endfacet
facet normal -0.0366185 0.0136208 -0.999236
  outer loop
    vertex -3.89193 -7.79636 3.03103
    vertex -4.51446 -7.5648 3.057
    vertex -3.89158 -7.79542 3.03103
  endloop
endfacet
facet normal 0.0346955 -0.0359144 -0.998752
  outer loop
    vertex -2.61325 -10.966 0.120218
    vertex -2.05477 -11.5441 0.160407
    vertex -2.61397 -10.9667 0.120218
  endloop
endfacet
facet normal 0.0572921 0.0619442 -0.996434
  outer loop
    vertex -2.05477 -11.5441 0.160407
    vertex -1.73827 -11.2019 0.199878
    vertex -2.05404 -11.5448 0.160407
  endloop
endfacet
facet normal 0.086939 -0.117019 -0.989317
  outer loop
    vertex -3.40995 -8.4451 3.15012
    vertex -3.89193 -7.79636 3.03103
    vertex -3.40915 -8.4445 3.15012
  endloop
endfacet
facet normal 0.128262 0.797956 -0.58891
  outer loop
    vertex -6.34253 -6.08886 1.74949
    vertex -6.26742 -5.62158 2.399
    vertex -6.34154 -6.08902 1.74949
  endloop
endfacet
facet normal 0.594121 -0.424787 -0.683064
  outer loop
    vertex -0.0657441 -10.0411 1.424
    vertex -0.467725 -9.75369 0.895626
    vertex -0.0651625 -10.0403 1.424
  endloop
endfacet
facet normal -0.568868 0.752295 -0.332328
  outer loop
    vertex -0.244943 -9.80412 2.2672
    vertex -0.0657441 -10.0411 1.424
    vertex -0.245741 -9.80472 2.2672
  endloop
endfacet
facet normal 0.627804 -0.252256 -0.736362
  outer loop
    vertex -8.29625 -9.75635 0.645919
    vertex -8.74684 -9.5753 0.199735
    vertex -8.29588 -9.75542 0.645919
  endloop
endfacet
facet normal -0.277986 0.119031 -0.953182
  outer loop
    vertex -3.17626 -3.88714 0.0229293
    vertex -3.59194 -3.70915 0.166385
    vertex -3.17587 -3.88622 0.0229293
  endloop
endfacet
facet normal -0.12226 -0.00420435 -0.992489
  outer loop
    vertex -4.01795 -10.0259 -0.0473251
    vertex -4.79146 -10.0525 0.0480723
    vertex -4.01798 -10.0249 -0.0473251
  endloop
endfacet
facet normal 0.0770486 -0.499029 -0.863154
  outer loop
    vertex -3.84995 -4.81255 0.197559
    vertex -3.77105 -5.32357 0.500046
    vertex -3.85094 -4.8127 0.197559
  endloop
endfacet
facet normal 0.273398 -0.940707 -0.200807
  outer loop
    vertex -3.80578 -4.96453 0.969666
    vertex -3.84995 -4.81255 0.197559
    vertex -3.80482 -4.96425 0.969666
  endloop
endfacet
facet normal 0.307734 0.131047 -0.942405
  outer loop
    vertex -4.54896 -5.65484 0.199961
    vertex -3.77105 -5.32357 0.500046
    vertex -4.54857 -5.65576 0.199961
  endloop
endfacet
facet normal 0.251367 -0.105158 -0.962162
  outer loop
    vertex -3.77105 -5.32357 0.500046
    vertex -4.74859 -4.91462 0.199966
    vertex -3.77066 -5.32265 0.500046
  endloop
endfacet
facet normal 0.251438 0.0889506 -0.963777
  outer loop
    vertex -8.56025 -8.19178 2.75201
    vertex -8.12276 -8.03701 2.88043
    vertex -8.55992 -8.19272 2.75201
  endloop
endfacet
facet normal 0.115474 0.259818 -0.958729
  outer loop
    vertex -3.59194 -3.70915 0.166385
    vertex -3.83288 -4.25127 -0.00955075
    vertex -3.59285 -3.70874 0.166385
  endloop
endfacet
facet normal 0.00189091 0.00300733 -0.999994
  outer loop
    vertex -3.84995 -4.81255 0.197559
    vertex -3.48749 -4.23609 0.199978
    vertex -3.8491 -4.81308 0.197559
  endloop
endfacet
facet normal 0.0108186 0.107067 -0.994193
  outer loop
    vertex -6.18026 -9.27054 -0.198739
    vertex -6.0723 -8.20211 -0.0825028
    vertex -6.17927 -9.27064 -0.198739
  endloop
endfacet
facet normal 0.191677 -0.103156 -0.976022
  outer loop
    vertex -5.66749 -9.5465 -0.0688722
    vertex -6.18026 -9.27054 -0.198739
    vertex -5.66702 -9.54562 -0.0688722
  endloop
endfacet
facet normal 0.0098769 0.00398285 -0.999943
  outer loop
    vertex -4.51446 -7.5648 3.057
    vertex -5.14231 -7.81798 3.04979
    vertex -4.51483 -7.56387 3.057
  endloop
endfacet
facet normal 0.0573767 -0.0256816 -0.998022
  outer loop
    vertex -5.2454 -9.11285 3.07487
    vertex -4.33116 -9.52206 3.13796
    vertex -5.24581 -9.11376 3.07487
  endloop
endfacet
facet normal -0.21171 0.0624062 -0.975338
  outer loop
    vertex -6.26742 -5.62158 2.399
    vertex -6.75478 -5.47792 2.51398
    vertex -6.26714 -5.62062 2.399
  endloop
endfacet
facet normal -0.000729355 -0.0119738 -0.999928
  outer loop
    vertex -6.75478 -5.47792 2.51398
    vertex -6.68768 -4.37634 2.50074
    vertex -6.75378 -5.47798 2.51398
  endloop
endfacet
facet normal 0.1223 -0.950251 -0.286473
  outer loop
    vertex -3.77111 -5.23391 1.87802
    vertex -3.80578 -4.96453 0.969666
    vertex -3.77012 -5.23378 1.87802
  endloop
endfacet
facet normal -0.0409621 -0.0730388 -0.996488
  outer loop
    vertex -2.9128 -8.80611 0.00875895
    vertex -3.33015 -9.55028 0.0804596
    vertex -2.91367 -8.80562 0.00875895
  endloop
endfacet
facet normal 0.00985595 0.0100317 -0.999901
  outer loop
    vertex -1.14051 -11.0963 2.86849
    vertex -1.74444 -11.711 2.85637
    vertex -1.14122 -11.0956 2.86849
  endloop
endfacet
facet normal -0.0296088 0.591782 -0.805554
  outer loop
    vertex -2.11167 -11.6378 2.92857
    vertex -2.12668 -11.3378 3.14951
    vertex -2.11067 -11.6378 2.92857
  endloop
endfacet
facet normal -0.219654 0.0572673 -0.973895
  outer loop
    vertex 0.426033 -9.44994 -0.0357228
    vertex -0.546023 -9.19651 0.198419
    vertex 0.426285 -9.44897 -0.0357228
  endloop
endfacet
facet normal 0.00138688 -0.00139638 -0.999998
  outer loop
    vertex -0.546023 -9.19651 0.198419
    vertex -0.0916442 -9.654 0.199688
    vertex -0.546733 -9.19721 0.198419
  endloop
endfacet
facet normal -0.868608 -0.486729 -0.0928149
  outer loop
    vertex -0.0432908 -7.23285 1.84396
    vertex -0.0878161 -7.2578 2.39149
    vertex -0.0437796 -7.23198 1.84396
  endloop
endfacet
facet normal -0.471057 -0 -0.882103
  outer loop
    vertex -2.56628 -10.2032 2.6563
    vertex -1.66288 -10.2032 2.17387
    vertex -2.56628 -10.2042 2.6563
  endloop
endfacet
facet normal -0.000860984 -0.647938 -0.761693
  outer loop
    vertex -1.66288 -10.2032 2.17387
    vertex -1.66378 -10.8805 2.75002
    vertex -1.66388 -10.2032 2.17387
  endloop
endfacet
facet normal -0.085854 -0.0665394 -0.994083
  outer loop
    vertex -1.66378 -10.8805 2.75002
    vertex -0.789877 -10.2032 2.62921
    vertex -1.66317 -10.8813 2.75002
  endloop
endfacet
facet normal -0.08843 -0.225241 -0.970282
  outer loop
    vertex -0.789877 -10.2032 2.62921
    vertex -1.14051 -11.0963 2.86849
    vertex -0.790808 -10.2028 2.62921
  endloop
endfacet
facet normal -0.0597419 0.697539 -0.714052
  outer loop
    vertex -1.43908 -10.8118 0.192258
    vertex -1.49147 -10.2001 0.794196
    vertex -1.43808 -10.8117 0.192258
  endloop
endfacet
facet normal 0.628202 0.662136 -0.40858
  outer loop
    vertex -1.49147 -10.2001 0.794196
    vertex -1.71528 -10.436 0.0677888
    vertex -1.4922 -10.1994 0.794196
  endloop
endfacet
facet normal 0.489459 -0.320141 -0.811135
  outer loop
    vertex -0.0878161 -7.2578 2.39149
    vertex 0.446055 -7.60699 2.85146
    vertex -0.0883635 -7.25864 2.39149
  endloop
endfacet
facet normal 0.0896104 0.0233036 -0.995704
  outer loop
    vertex 0.446055 -7.60699 2.85146
    vertex -0.334205 -7.8099 2.77649
    vertex 0.445803 -7.60602 2.85146
  endloop
endfacet
facet normal -0.610233 -0.0216811 -0.791925
  outer loop
    vertex -3.37319 -10.993 0.706544
    vertex -2.61325 -10.966 0.120218
    vertex -3.37315 -10.994 0.706544
  endloop
endfacet
facet normal -0.35765 0.256994 -0.897798
  outer loop
    vertex -2.61325 -10.966 0.120218
    vertex -3.37324 -10.4199 0.579291
    vertex -2.61267 -10.9652 0.120218
  endloop
endfacet
facet normal 1.89115e-05 -0.216764 -0.976224
  outer loop
    vertex -3.37324 -10.4199 0.579291
    vertex -3.37319 -10.993 0.706544
    vertex -3.37424 -10.4199 0.579291
  endloop
endfacet
facet normal 0.192811 0.382231 -0.903728
  outer loop
    vertex -3.74194 -9.10324 2.80093
    vertex -3.40995 -8.4451 3.15012
    vertex -3.74105 -9.10369 2.80093
  endloop
endfacet
facet normal 0.108293 -0.770628 -0.628017
  outer loop
    vertex -0.467725 -9.75369 0.895626
    vertex -0.546023 -9.19651 0.198419
    vertex -0.466735 -9.75355 0.895626
  endloop
endfacet
facet normal 0.102184 0.675744 -0.73002
  outer loop
    vertex -2.71488 -8.1116 0.200005
    vertex -2.59461 -7.31625 0.953057
    vertex -2.71389 -8.11175 0.200005
  endloop
endfacet
facet normal -0.169783 -0.503631 -0.847071
  outer loop
    vertex -3.2123 -3.82162 2.8552
    vertex -3.35929 -4.25764 3.1439
    vertex -3.21325 -3.8213 2.8552
  endloop
endfacet
facet normal 0.897401 0.337532 -0.284154
  outer loop
    vertex -3.35929 -4.25764 3.1439
    vertex -3.46851 -4.29872 2.75017
    vertex -3.35964 -4.2567 3.1439
  endloop
endfacet
facet normal 0.274605 0.602257 -0.749585
  outer loop
    vertex -0.00884265 -9.28631 2.76973
    vertex -0.244943 -9.80412 2.2672
    vertex -0.00975253 -9.2859 2.76973
  endloop
endfacet
facet normal 0.099436 -0.0574348 -0.993385
  outer loop
    vertex -4.79146 -10.0525 0.0480723
    vertex -5.66749 -9.5465 -0.0688722
    vertex -4.79096 -10.0516 0.0480723
  endloop
endfacet
facet normal -0.106251 0.157438 -0.981796
  outer loop
    vertex -3.27739 -7.53456 -0.0138711
    vertex -2.86903 -8.13965 -0.155095
    vertex -3.27822 -7.53512 -0.0138711
  endloop
endfacet
facet normal -0.229944 -0.496776 -0.836863
  outer loop
    vertex -8.00987 -9.13765 0.19996
    vertex -8.29625 -9.75635 0.645919
    vertex -8.01078 -9.13723 0.19996
  endloop
endfacet
facet normal 4.91013e-06 5.16712e-06 -1
  outer loop
    vertex -2.23168 -7.60311 0.20001
    vertex -2.71488 -8.1116 0.200005
    vertex -2.2324 -7.60242 0.20001
  endloop
endfacet
facet normal -0.294371 0.952783 -0.0745
  outer loop
    vertex -0.023916 -7.29556 0.965404
    vertex -0.0432908 -7.23285 1.84396
    vertex -0.0229606 -7.29526 0.965404
  endloop
endfacet
facet normal 0.0207331 -0.071229 -0.997244
  outer loop
    vertex -0.546023 -9.19651 0.198419
    vertex -0.735098 -8.54694 0.148092
    vertex -0.545063 -9.19623 0.198419
  endloop
endfacet
facet normal 0.430238 0.591032 -0.682331
  outer loop
    vertex -0.471026 -7.90977 0.151457
    vertex -0.023916 -7.29556 0.965404
    vertex -0.470218 -7.91036 0.151457
  endloop
endfacet
facet normal -0.668469 0.528358 -0.523437
  outer loop
    vertex -2.59461 -7.31625 0.953057
    vertex -2.23168 -7.60311 0.20001
    vertex -2.59523 -7.31703 0.953057
  endloop
endfacet
facet normal -0.363741 0.212501 -0.906937
  outer loop
    vertex -6.20572 -4.44224 0.838852
    vertex -6.51727 -4.26023 1.00645
    vertex -6.20522 -4.44138 0.838852
  endloop
endfacet
facet normal 0.0463943 -0.116346 -0.992125
  outer loop
    vertex -6.51727 -4.26023 1.00645
    vertex -6.26079 -4.90342 1.09387
    vertex -6.5182 -4.2606 1.00645
  endloop
endfacet
facet normal 0.0499181 -0.515654 -0.855341
  outer loop
    vertex -6.2072 -5.3545 0.768959
    vertex -6.25523 -4.85835 0.467045
    vertex -6.2062 -5.3544 0.768959
  endloop
endfacet
facet normal 0.187546 0.157221 -0.969592
  outer loop
    vertex -5.85138 -7.58917 -0.154558
    vertex -5.38748 -7.20028 -0.00176793
    vertex -5.85074 -7.58994 -0.154558
  endloop
endfacet
facet normal -0.0372719 -0.103411 -0.99394
  outer loop
    vertex -6.0723 -8.20211 -0.0825028
    vertex -5.85138 -7.58917 -0.154558
    vertex -6.07136 -8.20245 -0.0825028
  endloop
endfacet
endsolid boundary
